<mxfile host="app.diagrams.net" modified="2024-05-22T04:34:39.576Z" agent="Mozilla/5.0 (Windows NT 10.0; Win64; x64) AppleWebKit/537.36 (KHTML, like Gecko) Chrome/124.0.0.0 Safari/537.36" version="24.4.4" etag="VzfoWCbmnQuwbevGJHgt" type="github">
  <diagram name="Halaman-1" id="td6vTlnT148WZ7PxEx_R">
    <mxGraphModel>
      <root>
        <mxCell id="0" />
        <mxCell id="1" parent="0" />
      </root>
    </mxGraphModel>
  </diagram>
</mxfile>
